<?xml version="1.0" encoding="UTF-8" standalone="no"?>
<!-- Created with Inkscape (http://www.inkscape.org/) -->

<svg
   xmlns:dc="http://purl.org/dc/elements/1.1/"
   xmlns:cc="http://creativecommons.org/ns#"
   xmlns:rdf="http://www.w3.org/1999/02/22-rdf-syntax-ns#"
   xmlns:svg="http://www.w3.org/2000/svg"
   xmlns="http://www.w3.org/2000/svg"
   xmlns:sodipodi="http://sodipodi.sourceforge.net/DTD/sodipodi-0.dtd"
   xmlns:inkscape="http://www.inkscape.org/namespaces/inkscape"
   width="210mm"
   height="297mm"
   viewBox="0 0 744.09448819 1052.3622047"
   id="svg7245"
   version="1.1"
   inkscape:version="0.91 r13725"
   sodipodi:docname="logo.svg">
  <defs
     id="defs7247">
    <inkscape:path-effect
       effect="spiro"
       id="path-effect7872"
       is_visible="true" />
    <inkscape:path-effect
       effect="spiro"
       id="path-effect7868"
       is_visible="true" />
    <inkscape:path-effect
       effect="spiro"
       id="path-effect7864"
       is_visible="true" />
    <inkscape:path-effect
       effect="spiro"
       id="path-effect7860"
       is_visible="true" />
  </defs>
  <sodipodi:namedview
     id="base"
     pagecolor="#ffffff"
     bordercolor="#666666"
     borderopacity="1.0"
     inkscape:pageopacity="0.0"
     inkscape:pageshadow="2"
     inkscape:zoom="0.83972969"
     inkscape:cx="378.46252"
     inkscape:cy="460.582"
     inkscape:document-units="px"
     inkscape:current-layer="layer1"
     showgrid="false"
     inkscape:window-width="1855"
     inkscape:window-height="1056"
     inkscape:window-x="65"
     inkscape:window-y="24"
     inkscape:window-maximized="1" />
  <metadata
     id="metadata7250">
    <rdf:RDF>
      <cc:Work
         rdf:about="">
        <dc:format>image/svg+xml</dc:format>
        <dc:type
           rdf:resource="http://purl.org/dc/dcmitype/StillImage" />
        <dc:title></dc:title>
      </cc:Work>
    </rdf:RDF>
  </metadata>
  <g
     inkscape:label="Layer 1"
     inkscape:groupmode="layer"
     id="layer1">
    <path
       style="fill:none;fill-rule:evenodd;stroke:#d9534f;stroke-width:19.89999962;stroke-linecap:butt;stroke-linejoin:miter;stroke-miterlimit:4;stroke-dasharray:none;stroke-opacity:1"
       d="m 586.49924,469.5066 c -3.45675,7.6773 -7.30666,15.17757 -11.52958,22.4616 -3.933,6.78394 -8.19255,13.38466 -12.90323,19.65361 -4.89996,6.52084 -10.27697,12.66872 -15.77074,18.69777 -4.68732,5.14402 -9.46355,10.2064 -14.27688,15.23272 -3.63279,3.79354 -7.28699,7.56683 -10.99155,11.29032 -6.77807,6.81271 -13.72824,13.46176 -21.02726,19.71313 -4.5508,3.89761 -9.23494,7.63872 -13.74002,11.5891 -5.73268,5.02683 -11.16651,10.38468 -16.84562,15.47196 -8.00798,7.17345 -16.49109,13.7977 -25.08987,20.25116 -11.04019,8.28576 -22.14365,16.48814 -33.03417,24.96966 l -25.38864,19.77264 c -13.03112,-8.40184 -25.84069,-17.1473 -38.41089,-26.22425 -12.07369,-8.71841 -23.92655,-17.74262 -35.5434,-27.06107 -9.86469,-7.91295 -19.61953,-15.96299 -29.27152,-24.13403 -10.19284,-8.62891 -20.23122,-17.45341 -29.74884,-26.82181 -9.15734,-9.01376 -17.81816,-18.51669 -26.40399,-28.07641 -4.66089,-5.18957 -9.30356,-10.40024 -13.6805,-15.83144 -5.96667,-7.40385 -11.4267,-15.20164 -16.73652,-23.08986 -5.46758,-8.12259 -10.8025,-16.38648 -14.86331,-25.29606 -2.36159,-5.18144 -4.28245,-10.56367 -5.73503,-16.06952"
       id="path7858"
       inkscape:path-effect="#path-effect7860"
       inkscape:original-d="m 586.49924,469.5066 c 0,0 -7.29252,15.19003 -11.52958,22.4616 -3.94554,6.77128 -8.21791,13.37147 -12.90323,19.65361 -4.87461,6.53594 -10.35255,12.60486 -15.77074,18.69777 -4.62448,5.20035 -9.46997,10.20052 -14.27688,15.23272 -3.62799,3.79802 -7.2828,7.5524 -10.99155,11.29032 -6.77746,6.8308 -13.84821,13.32821 -21.02726,19.71313 -4.47709,3.98185 -8.51419,7.08014 -13.74002,11.5891 -6.04415,5.21503 -10.08816,9.71243 -16.84562,15.47196 -7.2183,6.15232 -16.9391,13.77488 -25.08987,20.25116 -10.08696,8.0147 -33.03417,24.96966 -33.03417,24.96966 l -25.38864,19.77264 -38.41089,-26.22425 -35.5434,-27.06107 c 0,0 -19.69453,-15.87567 -29.27152,-24.13403 -10.11146,-8.71925 -20.20914,-17.48044 -29.74884,-26.82181 -9.17926,-8.98843 -17.80144,-18.53457 -26.40399,-28.07641 -4.67015,-5.18007 -9.34986,-10.36436 -13.6805,-15.83144 -5.90244,-7.45135 -16.73652,-23.08986 -16.73652,-23.08986 -5.78802,-7.98521 -10.69238,-16.35917 -14.86331,-25.29606 -2.7305,-5.85052 -5.73503,-16.06952 -5.73503,-16.06952"
       inkscape:connector-curvature="0"
       sodipodi:nodetypes="cassssssssccccssssssc"
       inkscape:export-xdpi="90"
       inkscape:export-ydpi="90" />
    <path
       style="fill:none;fill-rule:evenodd;stroke:#d9534f;stroke-width:19.9;stroke-linecap:butt;stroke-linejoin:miter;stroke-opacity:1;stroke-miterlimit:4;stroke-dasharray:none"
       d="m 164.26637,407.1239 c -1.96077,-8.38375 -2.84637,-17.01833 -2.62826,-25.62555 0.23039,-9.09188 1.68774,-18.1288 3.94239,-26.93969 3.24963,-12.69917 8.18437,-25.01071 15.11251,-36.1386 6.50903,-10.45471 14.76077,-19.82156 24.31142,-27.59675 6.15061,-5.35887 12.75216,-10.20001 19.71196,-14.45544 6.86553,-4.19779 14.09562,-7.83239 21.68317,-10.51305 10.5335,-3.72145 21.6869,-5.57299 32.85327,-5.91359 8.79766,-0.26835 17.62341,0.39358 26.28262,1.97119 l 15.76957,3.9424 c 6.62735,2.1696 13.02574,5.03784 19.0549,8.54185 6.37585,3.70549 12.33812,8.122 17.74077,13.14131"
       id="path7862"
       inkscape:path-effect="#path-effect7864"
       inkscape:original-d="m 164.26637,407.1239 c 0,0 -2.50313,-19.0415 -2.62826,-25.62555 -0.14571,-7.66751 2.17126,-17.8467 3.94239,-26.93969 4.26882,-17.74181 1.53056,-22.55665 15.11251,-36.1386 4.16142,-4.16142 24.31142,-27.59675 24.31142,-27.59675 0,0 12.66107,-10.50921 19.71196,-14.45544 5.30004,-2.96631 15.90106,-8.56566 21.68317,-10.51305 6.70022,-2.25662 32.85327,-5.91359 32.85327,-5.91359 14.41836,-2.01793 11.77264,1.97119 26.28262,1.97119 l 15.76957,3.9424 c 0,0 13.17021,5.14802 19.0549,8.54185 6.60795,3.81094 17.74077,13.14131 17.74077,13.14131"
       inkscape:connector-curvature="0"
       sodipodi:nodetypes="cscscsscccsc"
       inkscape:export-xdpi="90"
       inkscape:export-ydpi="90" />
    <path
       style="fill:none;fill-rule:evenodd;stroke:#d9534f;stroke-width:19.89999962;stroke-linecap:butt;stroke-linejoin:miter;stroke-miterlimit:4;stroke-dasharray:none;stroke-opacity:1"
       d="m 421.17898,281.62439 c 7.57752,-7.11956 16.56253,-12.73519 26.28262,-16.42663 11.88711,-4.51442 24.73903,-6.12601 37.45274,-5.91361 11.084,0.18517 22.14455,1.73365 32.85326,4.59946 11.41013,3.38121 22.30508,8.49517 32.19621,15.11251 10.60222,7.09307 20.01932,15.88329 28.25381,25.62556 7.0843,8.38148 13.34726,17.54024 17.74079,27.59675 4.71753,10.79814 7.20642,22.45966 8.54184,34.16741 1.31773,11.55268 1.53806,23.23029 0.65706,34.82446 l -2.62826,24.31143"
       id="path7866"
       inkscape:path-effect="#path-effect7868"
       inkscape:original-d="m 421.17898,281.62439 c 0,0 19.80658,-13.44172 26.28262,-16.42663 9.81939,-4.52592 25.81429,-5.6615 37.45274,-5.91361 9.32361,-0.20197 25.08282,2.05169 32.85326,4.59946 7.34501,9.09678 21.34793,9.80533 32.19621,15.11251 2.62826,1.31413 25.75178,28.12758 28.25381,25.62556 6.99673,-6.9967 14.74714,15.62208 17.74079,27.59675 0.65706,2.62826 7.22771,29.56795 8.54184,34.16741 1.31413,4.59945 0.65706,34.82446 0.65706,34.82446 l -2.62826,24.31143"
       inkscape:connector-curvature="0"
       sodipodi:nodetypes="cssccssscc"
       inkscape:export-xdpi="90"
       inkscape:export-ydpi="90" />
    <path
       style="fill:none;fill-rule:evenodd;stroke:#03a9f4;stroke-width:19;stroke-linecap:butt;stroke-linejoin:miter;stroke-opacity:1;stroke-miterlimit:4;stroke-dasharray:none"
       d="m 118.27179,439.32011 141.26908,0 c 5.41426,-4.64254 10.67463,-9.46455 15.76956,-14.45544 3.99384,-3.91229 7.91306,-7.95128 12.48425,-11.17012 1.73867,-1.2243 3.57729,-2.33044 5.56856,-3.07657 1.99128,-0.74613 4.14773,-1.12284 6.25862,-0.86582 2.32892,0.28356 4.52292,1.33056 6.38511,2.75763 1.86219,1.42708 3.41216,3.22464 4.78501,5.12716 5.92702,8.21379 8.42216,18.34301 10.51305,28.25381 l 30.64583,145.26131 c 0.35468,0.51927 0.91455,0.89422 1.52975,1.02448 0.61521,0.13027 1.27899,0.0144 1.8137,-0.31654 0.65716,-0.40675 1.10275,-1.13719 1.16371,-1.90764 2.71946,-11.91876 4.00797,-24.11247 4.928,-36.30287 l 2.62826,-34.82447 c 5.66484,-75.05921 12.71676,-150.08658 25.23539,-224.31096 0.225,-1.84022 1.33247,-3.55247 2.91855,-4.51236 1.58607,-0.95989 3.61667,-1.14679 5.35132,-0.49254 1.01176,0.3816 1.91311,1.02991 2.64899,1.82222 0.73587,0.79231 1.31007,1.7262 1.75014,2.71393 0.88014,1.97546 1.2243,4.14053 1.56315,6.27648 10.65001,67.13174 24.24956,133.79548 40.74625,199.73448 1.18078,3.1599 3.91806,5.69467 7.15923,6.62956 1.96351,0.56636 4.10563,0.55949 6.03057,-0.12662 1.62324,-0.57858 3.07286,-1.63503 4.12074,-3.0031 1.04787,-1.36806 1.69024,-3.04284 1.826,-4.76075 l 16.95026,-79.27364 c 1.0171,-3.36147 3.00567,-6.42289 5.66334,-8.71871 2.65767,-2.29582 5.97557,-3.81839 9.44917,-4.33619 5.42589,-0.80882 11.17704,0.92563 15.25104,4.59946 l 13.5213,11.5552 17.75095,17.36586 102.63057,-0.0102"
       id="path7870"
       inkscape:path-effect="#path-effect7872"
       inkscape:original-d="m 118.27179,439.32011 141.26908,0 c 0,0 10.79199,-9.76045 15.76956,-14.45544 3.49435,-3.29597 7.65461,-8.36736 12.48425,-11.17012 3.59426,-2.08583 7.68199,-4.23698 11.82718,-3.94239 2.44258,0.17359 6.76702,-1.14797 11.17012,7.88479 3.96382,8.1316 8.65186,19.43174 10.51305,28.25381 l 30.64583,145.26131 c 0,0 2.57467,0.75786 3.34345,0.70794 0.76126,-0.0494 1.16371,-1.90764 1.16371,-1.90764 0,0 4.32041,-7.31573 4.928,-36.30287 l 2.62826,-34.82447 c 4.84712,-75.6095 16.3761,-154.54598 25.23539,-224.31096 3.44277,-9.28699 21.92986,-19.97329 8.26987,-5.0049 -2.51476,2.75564 5.10911,7.19374 5.96228,10.81263 19.0963,73.88179 19.4218,208.76689 40.74625,199.73448 0,0 1.93719,4.21125 7.15923,6.62956 2.85235,1.32091 3.93839,2.20229 6.03057,-0.12662 5.69362,-6.33787 5.94674,-7.76385 5.94674,-7.76385 2.69179,-27.15896 9.68328,-53.1125 16.95026,-79.27364 0,0 8.56294,-11.86481 15.11251,-13.0549 4.36341,-0.79285 15.25104,4.59946 15.25104,4.59946 l 13.5213,11.5552 17.75095,17.36586 102.63057,-0.0102"
       inkscape:connector-curvature="0"
       sodipodi:nodetypes="ccssssscsccccsccssccscccc"
       inkscape:export-xdpi="90"
       inkscape:export-ydpi="90" />
    <text
       xml:space="preserve"
       style="font-style:normal;font-weight:normal;font-size:36.61145401px;line-height:125%;font-family:sans-serif;letter-spacing:0px;word-spacing:0px;fill:#03a9f4;fill-opacity:1;stroke:none;stroke-width:1px;stroke-linecap:butt;stroke-linejoin:miter;stroke-opacity:1"
       x="94.08007"
       y="855.98444"
       id="text7874"
       sodipodi:linespacing="125%"
       transform="scale(1.0090865,0.99099532)"
       inkscape:export-xdpi="90"
       inkscape:export-ydpi="90"><tspan
         sodipodi:role="line"
         id="tspan7876"
         x="94.08007"
         y="855.98444"
         style="font-style:normal;font-variant:normal;font-weight:normal;font-stretch:normal;font-size:171.61249161px;line-height:125%;font-family:sans-serif;-inkscape-font-specification:'sans-serif, Normal';text-align:start;writing-mode:lr;text-anchor:start;fill:#03a9f4;fill-opacity:1">epione</tspan></text>
  </g>
</svg>
