<?xml version="1.0" encoding="UTF-8" standalone="no"?>
<svg
   xmlns:dc="http://purl.org/dc/elements/1.1/"
   xmlns:cc="http://creativecommons.org/ns#"
   xmlns:rdf="http://www.w3.org/1999/02/22-rdf-syntax-ns#"
   xmlns:svg="http://www.w3.org/2000/svg"
   xmlns="http://www.w3.org/2000/svg"
   version="1.1"
   id="svg7245"
   viewBox="0 0 744.09448819 1052.3622047"
   height="297mm"
   width="210mm">
  <defs
     id="defs7247" />
  <metadata
     id="metadata7250">
    <rdf:RDF>
      <cc:Work
         rdf:about="">
        <dc:format>image/svg+xml</dc:format>
        <dc:type
           rdf:resource="http://purl.org/dc/dcmitype/StillImage" />
        <dc:title></dc:title>
      </cc:Work>
    </rdf:RDF>
  </metadata>
  <g
     id="layer1">
    <path
       id="path7858"
       d="m 586.49924,469.5066 c -3.45675,7.6773 -7.30666,15.17757 -11.52958,22.4616 -3.933,6.78394 -8.19255,13.38466 -12.90323,19.65361 -4.89996,6.52084 -10.27697,12.66872 -15.77074,18.69777 -4.68732,5.14402 -9.46355,10.2064 -14.27688,15.23272 -3.63279,3.79354 -7.28699,7.56683 -10.99155,11.29032 -6.77807,6.81271 -13.72824,13.46176 -21.02726,19.71313 -4.5508,3.89761 -9.23494,7.63872 -13.74002,11.5891 -5.73268,5.02683 -11.16651,10.38468 -16.84562,15.47196 -8.00798,7.17345 -16.49109,13.7977 -25.08987,20.25116 -11.04019,8.28576 -22.14365,16.48814 -33.03417,24.96966 l -25.38864,19.77264 c -13.03112,-8.40184 -25.84069,-17.1473 -38.41089,-26.22425 -12.07369,-8.71841 -23.92655,-17.74262 -35.5434,-27.06107 -9.86469,-7.91295 -19.61953,-15.96299 -29.27152,-24.13403 -10.19284,-8.62891 -20.23122,-17.45341 -29.74884,-26.82181 -9.15734,-9.01376 -17.81816,-18.51669 -26.40399,-28.07641 -4.66089,-5.18957 -9.30356,-10.40024 -13.6805,-15.83144 -5.96667,-7.40385 -11.4267,-15.20164 -16.73652,-23.08986 -5.46758,-8.12259 -10.8025,-16.38648 -14.86331,-25.29606 -2.36159,-5.18144 -4.28245,-10.56367 -5.73503,-16.06952"
       style="fill:none;fill-rule:evenodd;stroke:#d9534f;stroke-width:19.89999962;stroke-linecap:butt;stroke-linejoin:miter;stroke-miterlimit:4;stroke-dasharray:none;stroke-opacity:1" />
    <path
       id="path7862"
       d="m 164.26637,407.1239 c -1.96077,-8.38375 -2.84637,-17.01833 -2.62826,-25.62555 0.23039,-9.09188 1.68774,-18.1288 3.94239,-26.93969 3.24963,-12.69917 8.18437,-25.01071 15.11251,-36.1386 6.50903,-10.45471 14.76077,-19.82156 24.31142,-27.59675 6.15061,-5.35887 12.75216,-10.20001 19.71196,-14.45544 6.86553,-4.19779 14.09562,-7.83239 21.68317,-10.51305 10.5335,-3.72145 21.6869,-5.57299 32.85327,-5.91359 8.79766,-0.26835 17.62341,0.39358 26.28262,1.97119 l 15.76957,3.9424 c 6.62735,2.1696 13.02574,5.03784 19.0549,8.54185 6.37585,3.70549 12.33812,8.122 17.74077,13.14131"
       style="fill:none;fill-rule:evenodd;stroke:#d9534f;stroke-width:19.9;stroke-linecap:butt;stroke-linejoin:miter;stroke-opacity:1;stroke-miterlimit:4;stroke-dasharray:none" />
    <path
       id="path7866"
       d="m 421.17898,281.62439 c 7.57752,-7.11956 16.56253,-12.73519 26.28262,-16.42663 11.88711,-4.51442 24.73903,-6.12601 37.45274,-5.91361 11.084,0.18517 22.14455,1.73365 32.85326,4.59946 11.41013,3.38121 22.30508,8.49517 32.19621,15.11251 10.60222,7.09307 20.01932,15.88329 28.25381,25.62556 7.0843,8.38148 13.34726,17.54024 17.74079,27.59675 4.71753,10.79814 7.20642,22.45966 8.54184,34.16741 1.31773,11.55268 1.53806,23.23029 0.65706,34.82446 l -2.62826,24.31143"
       style="fill:none;fill-rule:evenodd;stroke:#d9534f;stroke-width:19.89999962;stroke-linecap:butt;stroke-linejoin:miter;stroke-miterlimit:4;stroke-dasharray:none;stroke-opacity:1" />
    <path
       id="path7870"
       d="m 118.27179,439.32011 141.26908,0 c 5.41426,-4.64254 10.67463,-9.46455 15.76956,-14.45544 3.99384,-3.91229 7.91306,-7.95128 12.48425,-11.17012 1.73867,-1.2243 3.57729,-2.33044 5.56856,-3.07657 1.99128,-0.74613 4.14773,-1.12284 6.25862,-0.86582 2.32892,0.28356 4.52292,1.33056 6.38511,2.75763 1.86219,1.42708 3.41216,3.22464 4.78501,5.12716 5.92702,8.21379 8.42216,18.34301 10.51305,28.25381 l 30.64583,145.26131 c 0.35468,0.51927 0.91455,0.89422 1.52975,1.02448 0.61521,0.13027 1.27899,0.0144 1.8137,-0.31654 0.65716,-0.40675 1.10275,-1.13719 1.16371,-1.90764 2.71946,-11.91876 4.00797,-24.11247 4.928,-36.30287 l 2.62826,-34.82447 c 5.66484,-75.05921 12.71676,-150.08658 25.23539,-224.31096 0.225,-1.84022 1.33247,-3.55247 2.91855,-4.51236 1.58607,-0.95989 3.61667,-1.14679 5.35132,-0.49254 1.01176,0.3816 1.91311,1.02991 2.64899,1.82222 0.73587,0.79231 1.31007,1.7262 1.75014,2.71393 0.88014,1.97546 1.2243,4.14053 1.56315,6.27648 10.65001,67.13174 24.24956,133.79548 40.74625,199.73448 1.18078,3.1599 3.91806,5.69467 7.15923,6.62956 1.96351,0.56636 4.10563,0.55949 6.03057,-0.12662 1.62324,-0.57858 3.07286,-1.63503 4.12074,-3.0031 1.04787,-1.36806 1.69024,-3.04284 1.826,-4.76075 l 16.95026,-79.27364 c 1.0171,-3.36147 3.00567,-6.42289 5.66334,-8.71871 2.65767,-2.29582 5.97557,-3.81839 9.44917,-4.33619 5.42589,-0.80882 11.17704,0.92563 15.25104,4.59946 l 13.5213,11.5552 17.75095,17.36586 102.63057,-0.0102"
       style="fill:none;fill-rule:evenodd;stroke:#03a9f4;stroke-width:19;stroke-linecap:butt;stroke-linejoin:miter;stroke-opacity:1;stroke-miterlimit:4;stroke-dasharray:none" />
    <text
       transform="scale(1.0090865,0.99099532)"
       id="text7874"
       y="855.98444"
       x="94.08007"
       style="font-style:normal;font-weight:normal;font-size:36.61145401px;line-height:125%;font-family:sans-serif;letter-spacing:0px;word-spacing:0px;fill:#03a9f4;fill-opacity:1;stroke:none;stroke-width:1px;stroke-linecap:butt;stroke-linejoin:miter;stroke-opacity:1"
       xml:space="preserve"><tspan
         style="font-style:normal;font-variant:normal;font-weight:normal;font-stretch:normal;font-size:171.61249161px;line-height:125%;font-family:sans-serif;-inkscape-font-specification:'sans-serif, Normal';text-align:start;writing-mode:lr;text-anchor:start;fill:#03a9f4;fill-opacity:1"
         y="855.98444"
         x="94.08007"
         id="tspan7876">epione</tspan></text>
  </g>
</svg>
